<svg xmlns="http://www.w3.org/2000/svg" width="1280" height="670" viewBox="0 0 1280 670" role="img" aria-labelledby="title desc"><title id="title">Ring buffer: logical cursors and physical addresses</title><desc id="desc">Sixteen slots show logical monotonic cursor arithmetic and wraparound, distinguishing free and readable slots.</desc><defs><marker id="arrow" markerWidth="9" markerHeight="9" refX="8" refY="4" orient="auto"><path d="M0 0L8 4L0 8" fill="none" stroke="#222b35" stroke-width="1.6"/></marker><pattern id="hatch" width="9" height="9" patternUnits="userSpaceOnUse"><path d="M-2 2L2 -2M0 9L9 0M7 11L11 7" stroke="#b8bec7" stroke-width="1"/></pattern></defs><style>text{font-family:Arial,'Microsoft YaHei',sans-serif;fill:#222b35}.mono{font-family:Consolas,'Courier New',monospace}.note{fill:#64717e}.cell{stroke:#222b35;stroke-width:1.5}.line{fill:none;stroke:#222b35;stroke-width:1.7}.guide{fill:none;stroke:#8b96a2;stroke-width:1.2;stroke-dasharray:5 5}</style><rect width="1280" height="670" fill="white"/>
<text x="28" y="38" font-size="25" text-anchor="start" font-weight="700">Ring buffer: logical cursors and physical addresses</text>
<text x="28" y="71" font-size="16" text-anchor="start" class="note">Teaching example: 16 units; logical cursors increase. Physical slot = cursor &amp; 15.</text>
<rect class="cell" x="70" y="164" width="70" height="80" rx="0" fill="#f2f3f5"/>
<text x="105" y="197" font-size="19" text-anchor="middle" font-weight="700" class="mono">0</text>
<text x="105" y="224" font-size="13" text-anchor="middle">free</text>
<rect class="cell" x="140" y="164" width="70" height="80" rx="0" fill="#f2f3f5"/>
<text x="175" y="197" font-size="19" text-anchor="middle" font-weight="700" class="mono">1</text>
<text x="175" y="224" font-size="13" text-anchor="middle">free</text>
<rect class="cell" x="210" y="164" width="70" height="80" rx="0" fill="#f2f3f5"/>
<text x="245" y="197" font-size="19" text-anchor="middle" font-weight="700" class="mono">2</text>
<text x="245" y="224" font-size="13" text-anchor="middle">free</text>
<rect class="cell" x="280" y="164" width="70" height="80" rx="0" fill="#f2f3f5"/>
<text x="315" y="197" font-size="19" text-anchor="middle" font-weight="700" class="mono">3</text>
<text x="315" y="224" font-size="13" text-anchor="middle">free</text>
<rect class="cell" x="350" y="164" width="70" height="80" rx="0" fill="#d3eaff"/>
<text x="385" y="197" font-size="19" text-anchor="middle" font-weight="700" class="mono">4</text>
<text x="385" y="224" font-size="13" text-anchor="middle">data</text>
<rect class="cell" x="420" y="164" width="70" height="80" rx="0" fill="#d3eaff"/>
<text x="455" y="197" font-size="19" text-anchor="middle" font-weight="700" class="mono">5</text>
<text x="455" y="224" font-size="13" text-anchor="middle">data</text>
<rect class="cell" x="490" y="164" width="70" height="80" rx="0" fill="#d3eaff"/>
<text x="525" y="197" font-size="19" text-anchor="middle" font-weight="700" class="mono">6</text>
<text x="525" y="224" font-size="13" text-anchor="middle">data</text>
<rect class="cell" x="560" y="164" width="70" height="80" rx="0" fill="#d3eaff"/>
<text x="595" y="197" font-size="19" text-anchor="middle" font-weight="700" class="mono">7</text>
<text x="595" y="224" font-size="13" text-anchor="middle">data</text>
<rect class="cell" x="630" y="164" width="70" height="80" rx="0" fill="#d3eaff"/>
<text x="665" y="197" font-size="19" text-anchor="middle" font-weight="700" class="mono">8</text>
<text x="665" y="224" font-size="13" text-anchor="middle">data</text>
<rect class="cell" x="700" y="164" width="70" height="80" rx="0" fill="#d3eaff"/>
<text x="735" y="197" font-size="19" text-anchor="middle" font-weight="700" class="mono">9</text>
<text x="735" y="224" font-size="13" text-anchor="middle">data</text>
<rect class="cell" x="770" y="164" width="70" height="80" rx="0" fill="#d3eaff"/>
<text x="805" y="197" font-size="19" text-anchor="middle" font-weight="700" class="mono">10</text>
<text x="805" y="224" font-size="13" text-anchor="middle">data</text>
<rect class="cell" x="840" y="164" width="70" height="80" rx="0" fill="#f2f3f5"/>
<text x="875" y="197" font-size="19" text-anchor="middle" font-weight="700" class="mono">11</text>
<text x="875" y="224" font-size="13" text-anchor="middle">free</text>
<rect class="cell" x="910" y="164" width="70" height="80" rx="0" fill="#f2f3f5"/>
<text x="945" y="197" font-size="19" text-anchor="middle" font-weight="700" class="mono">12</text>
<text x="945" y="224" font-size="13" text-anchor="middle">free</text>
<rect class="cell" x="980" y="164" width="70" height="80" rx="0" fill="#f2f3f5"/>
<text x="1015" y="197" font-size="19" text-anchor="middle" font-weight="700" class="mono">13</text>
<text x="1015" y="224" font-size="13" text-anchor="middle">free</text>
<rect class="cell" x="1050" y="164" width="70" height="80" rx="0" fill="#f2f3f5"/>
<text x="1085" y="197" font-size="19" text-anchor="middle" font-weight="700" class="mono">14</text>
<text x="1085" y="224" font-size="13" text-anchor="middle">free</text>
<rect class="cell" x="1120" y="164" width="70" height="80" rx="0" fill="#f2f3f5"/>
<text x="1155" y="197" font-size="19" text-anchor="middle" font-weight="700" class="mono">15</text>
<text x="1155" y="224" font-size="13" text-anchor="middle">free</text>
<path d="M350 121V159" class="line" marker-end="url(#arrow)"/>
<text x="350" y="109" font-size="17" text-anchor="middle" font-weight="700">Out=4</text>
<path d="M840 121V159" class="line" marker-end="url(#arrow)"/>
<text x="840" y="109" font-size="17" text-anchor="middle" font-weight="700">In=11</text>
<text x="70" y="283" font-size="19" text-anchor="start" class="mono">used = In - Out = 7; free = 16 - 7 = 9</text>
<rect class="cell" x="70" y="409" width="70" height="80" rx="0" fill="#d3eaff"/>
<text x="105" y="442" font-size="19" text-anchor="middle" font-weight="700" class="mono">0</text>
<text x="105" y="469" font-size="13" text-anchor="middle">data</text>
<rect class="cell" x="140" y="409" width="70" height="80" rx="0" fill="#d3eaff"/>
<text x="175" y="442" font-size="19" text-anchor="middle" font-weight="700" class="mono">1</text>
<text x="175" y="469" font-size="13" text-anchor="middle">data</text>
<rect class="cell" x="210" y="409" width="70" height="80" rx="0" fill="#d3eaff"/>
<text x="245" y="442" font-size="19" text-anchor="middle" font-weight="700" class="mono">2</text>
<text x="245" y="469" font-size="13" text-anchor="middle">data</text>
<rect class="cell" x="280" y="409" width="70" height="80" rx="0" fill="#d3eaff"/>
<text x="315" y="442" font-size="19" text-anchor="middle" font-weight="700" class="mono">3</text>
<text x="315" y="469" font-size="13" text-anchor="middle">data</text>
<rect class="cell" x="350" y="409" width="70" height="80" rx="0" fill="#d3eaff"/>
<text x="385" y="442" font-size="19" text-anchor="middle" font-weight="700" class="mono">4</text>
<text x="385" y="469" font-size="13" text-anchor="middle">data</text>
<rect class="cell" x="420" y="409" width="70" height="80" rx="0" fill="#f2f3f5"/>
<text x="455" y="442" font-size="19" text-anchor="middle" font-weight="700" class="mono">5</text>
<text x="455" y="469" font-size="13" text-anchor="middle">free</text>
<rect class="cell" x="490" y="409" width="70" height="80" rx="0" fill="#f2f3f5"/>
<text x="525" y="442" font-size="19" text-anchor="middle" font-weight="700" class="mono">6</text>
<text x="525" y="469" font-size="13" text-anchor="middle">free</text>
<rect class="cell" x="560" y="409" width="70" height="80" rx="0" fill="#f2f3f5"/>
<text x="595" y="442" font-size="19" text-anchor="middle" font-weight="700" class="mono">7</text>
<text x="595" y="469" font-size="13" text-anchor="middle">free</text>
<rect class="cell" x="630" y="409" width="70" height="80" rx="0" fill="#f2f3f5"/>
<text x="665" y="442" font-size="19" text-anchor="middle" font-weight="700" class="mono">8</text>
<text x="665" y="469" font-size="13" text-anchor="middle">free</text>
<rect class="cell" x="700" y="409" width="70" height="80" rx="0" fill="#f2f3f5"/>
<text x="735" y="442" font-size="19" text-anchor="middle" font-weight="700" class="mono">9</text>
<text x="735" y="469" font-size="13" text-anchor="middle">free</text>
<rect class="cell" x="770" y="409" width="70" height="80" rx="0" fill="#f2f3f5"/>
<text x="805" y="442" font-size="19" text-anchor="middle" font-weight="700" class="mono">10</text>
<text x="805" y="469" font-size="13" text-anchor="middle">free</text>
<rect class="cell" x="840" y="409" width="70" height="80" rx="0" fill="#f2f3f5"/>
<text x="875" y="442" font-size="19" text-anchor="middle" font-weight="700" class="mono">11</text>
<text x="875" y="469" font-size="13" text-anchor="middle">free</text>
<rect class="cell" x="910" y="409" width="70" height="80" rx="0" fill="#f2f3f5"/>
<text x="945" y="442" font-size="19" text-anchor="middle" font-weight="700" class="mono">12</text>
<text x="945" y="469" font-size="13" text-anchor="middle">free</text>
<rect class="cell" x="980" y="409" width="70" height="80" rx="0" fill="#f2f3f5"/>
<text x="1015" y="442" font-size="19" text-anchor="middle" font-weight="700" class="mono">13</text>
<text x="1015" y="469" font-size="13" text-anchor="middle">free</text>
<rect class="cell" x="1050" y="409" width="70" height="80" rx="0" fill="#d3eaff"/>
<text x="1085" y="442" font-size="19" text-anchor="middle" font-weight="700" class="mono">14</text>
<text x="1085" y="469" font-size="13" text-anchor="middle">data</text>
<rect class="cell" x="1120" y="409" width="70" height="80" rx="0" fill="#d3eaff"/>
<text x="1155" y="442" font-size="19" text-anchor="middle" font-weight="700" class="mono">15</text>
<text x="1155" y="469" font-size="13" text-anchor="middle">data</text>
<path d="M1050 366V404" class="line" marker-end="url(#arrow)"/>
<text x="1050" y="354" font-size="17" text-anchor="middle" font-weight="700">Out=14</text>
<path d="M420 366V404" class="line" marker-end="url(#arrow)"/>
<text x="420" y="354" font-size="17" text-anchor="middle" font-weight="700">In=21</text>
<text x="70" y="525" font-size="18" text-anchor="start" class="mono">In=21 maps to slot 5; Out=14 maps to slot 14; used is still 7</text>
<text x="28" y="591" font-size="16" text-anchor="start" class="note">Reading data and releasing storage are separate operations. Do not expose a cursor before bytes are ready.</text>
<text x="28" y="626" font-size="16" text-anchor="start" class="note">Contiguous variable-sized records need an additional tail/wrap policy; a ring of bytes alone is not enough.</text>
</svg>
